<svg xmlns="http://www.w3.org/2000/svg" viewBox="0 0 390 844" width="390" height="844">
  <defs>
    <linearGradient id="duskBg" x1="0" y1="0" x2="0" y2="1">
      <stop offset="0%" stop-color="#080610"/>
      <stop offset="20%" stop-color="#0a0814"/>
      <stop offset="50%" stop-color="#1e1038"/>
      <stop offset="78%" stop-color="#4a2070"/>
      <stop offset="88%" stop-color="#7b38a8"/>
      <stop offset="92%" stop-color="#080610"/>
      <stop offset="100%" stop-color="#080610"/>
    </linearGradient>
    <radialGradient id="duskGlow" cx="50%" cy="70%">
      <stop offset="0%" stop-color="rgba(236,72,153,0.2)"/>
      <stop offset="100%" stop-color="rgba(0,0,0,0)"/>
    </radialGradient>
  </defs>

  <!-- Background -->
  <rect width="390" height="844" fill="url(#duskBg)"/>
  <!-- glow removed to keep icons clean -->

  <!-- Status bar -->
  <text x="36" y="58" fill="rgba(255,255,255,0.7)" font-family="system-ui" font-size="15" font-weight="600">6:48</text>
  <rect x="135" y="14" width="120" height="32" rx="16" fill="rgba(0,0,0,0.35)"/>
  <circle cx="330" cy="52" r="4" fill="rgba(255,255,255,0.5)"/>
  <circle cx="342" cy="52" r="4" fill="rgba(255,255,255,0.5)"/>
  <rect x="354" y="46" width="20" height="12" rx="3" fill="none" stroke="rgba(255,255,255,0.5)" stroke-width="1.5"/>
  <rect x="356" y="48" width="12" height="8" rx="1.5" fill="rgba(255,255,255,0.5)"/>

  <!-- Header -->
  <text x="24" y="110" fill="rgba(255,255,255,0.5)" font-family="system-ui" font-size="15" font-weight="500">3 members</text>
  <text x="24" y="148" fill="white" font-family="system-ui" font-size="32" font-weight="800" letter-spacing="-0.5">Household</text>

  <!-- Member avatars row -->
  <rect x="16" y="172" width="358" height="90" rx="20" fill="rgba(255,255,255,0.04)" stroke="rgba(255,255,255,0.08)" stroke-width="1"/>

  <!-- Lauren avatar -->
  <circle cx="72" cy="210" r="26" fill="rgba(255,180,90,0.15)" stroke="rgba(255,180,90,0.3)" stroke-width="1.5"/>
  <text x="72" y="218" fill="white" font-size="26" text-anchor="middle">&#x1F469;</text>
  <text x="72" y="248" fill="rgba(255,255,255,0.7)" font-family="system-ui" font-size="12" font-weight="600" text-anchor="middle">Lauren</text>

  <!-- Zeus avatar -->
  <circle cx="195" cy="210" r="26" fill="rgba(107,92,255,0.15)" stroke="rgba(107,92,255,0.3)" stroke-width="1.5"/>
  <text x="195" y="218" fill="white" font-size="26" text-anchor="middle">&#x1F468;</text>
  <text x="195" y="248" fill="rgba(255,255,255,0.7)" font-family="system-ui" font-size="12" font-weight="600" text-anchor="middle">Zeus</text>

  <!-- Reese avatar -->
  <circle cx="318" cy="210" r="26" fill="rgba(236,72,153,0.15)" stroke="rgba(236,72,153,0.3)" stroke-width="1.5"/>
  <text x="318" y="218" fill="white" font-size="26" text-anchor="middle">&#x1F467;</text>
  <text x="318" y="248" fill="rgba(255,255,255,0.7)" font-family="system-ui" font-size="12" font-weight="600" text-anchor="middle">Reese</text>

  <!-- Shared Tasks section -->
  <text x="24" y="306" fill="rgba(255,255,255,0.45)" font-family="system-ui" font-size="13" font-weight="700" letter-spacing="0.5">SHARED TASKS</text>

  <!-- Task 1 -->
  <rect x="16" y="322" width="358" height="68" rx="16" fill="rgba(255,255,255,0.05)" stroke="rgba(255,255,255,0.06)" stroke-width="1"/>
  <circle cx="40" cy="350" r="10" fill="none" stroke="rgba(255,255,255,0.25)" stroke-width="1.5"/>
  <text x="60" y="346" fill="rgba(255,255,255,0.85)" font-family="system-ui" font-size="15" font-weight="600">Grocery run</text>
  <text x="60" y="366" fill="rgba(255,255,255,0.4)" font-family="system-ui" font-size="12">Harris Teeter &#x2022; 5 items</text>
  <!-- Assignee avatars -->
  <circle cx="320" cy="348" r="13" fill="rgba(255,180,90,0.15)" stroke="rgba(255,180,90,0.3)" stroke-width="1"/>
  <text x="320" y="353" fill="white" font-size="12" text-anchor="middle">&#x1F469;</text>
  <circle cx="342" cy="348" r="13" fill="rgba(107,92,255,0.15)" stroke="rgba(107,92,255,0.3)" stroke-width="1"/>
  <text x="342" y="353" fill="white" font-size="12" text-anchor="middle">&#x1F468;</text>

  <!-- Task 2 -->
  <rect x="16" y="400" width="358" height="68" rx="16" fill="rgba(255,255,255,0.05)" stroke="rgba(255,255,255,0.06)" stroke-width="1"/>
  <circle cx="40" cy="428" r="10" fill="none" stroke="rgba(255,255,255,0.25)" stroke-width="1.5"/>
  <text x="60" y="424" fill="rgba(255,255,255,0.85)" font-family="system-ui" font-size="15" font-weight="600">Pick up dry cleaning</text>
  <text x="60" y="444" fill="rgba(255,255,255,0.4)" font-family="system-ui" font-size="12">Cleaners &#x2022; Due today</text>
  <circle cx="340" cy="426" r="13" fill="rgba(107,92,255,0.15)" stroke="rgba(107,92,255,0.3)" stroke-width="1"/>
  <text x="340" y="431" fill="white" font-size="12" text-anchor="middle">&#x1F468;</text>

  <!-- Task 3 -->
  <rect x="16" y="478" width="358" height="68" rx="16" fill="rgba(255,255,255,0.05)" stroke="rgba(255,255,255,0.06)" stroke-width="1"/>
  <circle cx="40" cy="506" r="10" fill="none" stroke="rgba(255,255,255,0.25)" stroke-width="1.5"/>
  <text x="60" y="502" fill="rgba(255,255,255,0.85)" font-family="system-ui" font-size="15" font-weight="600">Return Amazon package</text>
  <text x="60" y="522" fill="rgba(255,255,255,0.4)" font-family="system-ui" font-size="12">UPS Store &#x2022; 2.1 mi</text>
  <circle cx="340" cy="504" r="13" fill="rgba(255,180,90,0.15)" stroke="rgba(255,180,90,0.3)" stroke-width="1"/>
  <text x="340" y="509" fill="white" font-size="12" text-anchor="middle">&#x1F469;</text>

  <!-- Task 4 (completed) -->
  <rect x="16" y="556" width="358" height="68" rx="16" fill="rgba(255,255,255,0.03)" stroke="rgba(255,255,255,0.04)" stroke-width="1"/>
  <circle cx="40" cy="584" r="10" fill="rgba(34,211,238,0.2)" stroke="rgba(34,211,238,0.4)" stroke-width="1.5"/>
  <text x="40" y="589" fill="rgba(34,211,238,0.8)" font-size="12" text-anchor="middle">&#x2713;</text>
  <text x="60" y="580" fill="rgba(255,255,255,0.35)" font-family="system-ui" font-size="15" font-weight="600" text-decoration="line-through">Dog food from Petco</text>
  <text x="60" y="600" fill="rgba(255,255,255,0.25)" font-family="system-ui" font-size="12">Completed by Zeus</text>
  <circle cx="340" cy="582" r="13" fill="rgba(107,92,255,0.1)" stroke="rgba(107,92,255,0.2)" stroke-width="1"/>
  <text x="340" y="587" fill="rgba(255,255,255,0.4)" font-size="12" text-anchor="middle">&#x1F468;</text>

  <!-- Invite button -->
  <rect x="16" y="648" width="358" height="52" rx="16" fill="rgba(139,92,246,0.12)" stroke="rgba(139,92,246,0.25)" stroke-width="1"/>
  <text x="195" y="680" fill="rgba(167,139,250,0.9)" font-family="system-ui" font-size="15" font-weight="700" text-anchor="middle">+ Invite to Household</text>

  <!-- Proximity card -->
  <rect x="16" y="716" width="358" height="52" rx="16" fill="rgba(255,255,255,0.04)" stroke="rgba(255,255,255,0.06)" stroke-width="1"/>
  <text x="32" y="748" fill="rgba(34,211,238,0.7)" font-family="system-ui" font-size="13" font-weight="600">&#x1F4CD; Zeus is near Harris Teeter</text>
  <text x="310" y="748" fill="rgba(255,255,255,0.3)" font-family="system-ui" font-size="12">2 min ago</text>

  <!-- Tab bar -->
  <rect x="0" y="776" width="390" height="68" fill="rgba(7,6,14,0.95)"/>
  <line x1="0" y1="776" x2="390" y2="776" stroke="rgba(255,255,255,0.08)" stroke-width="0.5"/>

  <!-- Home -->
  <g transform="translate(46,786)">
    <path d="M9 2L1 8.5V16.5C1 17.05 1.45 17.5 2 17.5H6.5V12H11.5V17.5H16C16.55 17.5 17 17.05 17 16.5V8.5L9 2Z" fill="rgba(255,255,255,0.35)" transform="scale(0.9)"/>
  </g>
  <text x="55" y="816" fill="rgba(255,255,255,0.35)" font-family="system-ui" font-size="10" font-weight="600" text-anchor="middle">Home</text>

  <!-- Places -->
  <g transform="translate(122,786)">
    <path d="M8 0C4.13 0 1 3.13 1 7C1 12.25 8 19 8 19S15 12.25 15 7C15 3.13 11.87 0 8 0ZM8 9.5C6.62 9.5 5.5 8.38 5.5 7C5.5 5.62 6.62 4.5 8 4.5C9.38 4.5 10.5 5.62 10.5 7C10.5 8.38 9.38 9.5 8 9.5Z" fill="rgba(255,255,255,0.35)" transform="scale(0.85)"/>
  </g>
  <text x="130" y="816" fill="rgba(255,255,255,0.35)" font-family="system-ui" font-size="10" font-weight="600" text-anchor="middle">Places</text>

  <!-- Tasks -->
  <g transform="translate(196,786)">
    <path d="M16 2H5C3.9 2 3 2.9 3 4V17C3 18.1 3.9 19 5 19H16C17.1 19 18 18.1 18 17V4C18 2.9 17.1 2 16 2ZM7 15L5 13L6.4 11.6L7 12.2L9.6 9.6L11 11L7 15ZM7 10L5 8L6.4 6.6L7 7.2L9.6 4.6L11 6L7 10ZM16 16H12V14H16V16ZM16 11H12V9H16V11Z" fill="rgba(255,255,255,0.35)" transform="scale(0.85)"/>
  </g>
  <text x="205" y="816" fill="rgba(255,255,255,0.35)" font-family="system-ui" font-size="10" font-weight="600" text-anchor="middle">Tasks</text>

  <!-- Household (active) -->
  <g transform="translate(270,786)">
    <path d="M9 11C11.21 11 13 9.21 13 7C13 4.79 11.21 3 9 3C6.79 3 5 4.79 5 7C5 9.21 6.79 11 9 11ZM9 13C6.33 13 1 14.34 1 17V19H17V17C17 14.34 11.67 13 9 13Z" fill="rgba(139,92,246,0.9)" transform="scale(0.85)"/>
    <path d="M17 11C18.66 11 20 9.66 20 8C20 6.34 18.66 5 17 5C16.4 5 15.84 5.16 15.36 5.44C15.77 6.16 16 7.05 16 8C16 8.95 15.77 9.84 15.36 10.56C15.84 10.84 16.4 11 17 11Z" fill="rgba(139,92,246,0.9)" transform="scale(0.85)"/>
  </g>
  <text x="280" y="816" fill="rgba(139,92,246,0.9)" font-family="system-ui" font-size="10" font-weight="700" text-anchor="middle">Household</text>

  <!-- You -->
  <g transform="translate(336,786)">
    <path d="M9 11C11.76 11 14 8.76 14 6C14 3.24 11.76 1 9 1C6.24 1 4 3.24 4 6C4 8.76 6.24 11 9 11ZM9 13C5.67 13 -1 14.67 -1 18V20H19V18C19 14.67 12.33 13 9 13Z" fill="rgba(255,255,255,0.35)" transform="scale(0.85)"/>
  </g>
  <text x="345" y="816" fill="rgba(255,255,255,0.35)" font-family="system-ui" font-size="10" font-weight="600" text-anchor="middle">You</text>
</svg>
